<svg width="200" height="32" viewBox="0 0 200 32" fill="none" xmlns="http://www.w3.org/2000/svg">
<path d="M0.000700182 17.1012C0.000700182 15.4771 0.233184 14.0439 0.69861 12.8022C1.16333 11.561 1.81487 10.5165 2.65185 9.66893C3.48929 8.82208 4.50092 8.17823 5.68696 7.73693C6.87301 7.29609 8.18686 7.07556 9.62903 7.07556C10.9546 7.07556 12.1758 7.30777 13.292 7.77173C14.4083 8.23639 15.3792 8.87439 16.2049 9.68644C17.0304 10.4992 17.6757 11.4736 18.1411 12.6106C18.6061 13.7479 18.8388 14.9778 18.8388 16.3006C18.8388 17.6467 18.6117 18.8825 18.1584 20.0078C17.7049 21.1336 17.077 22.1024 16.2747 22.9147C15.4719 23.7272 14.5305 24.3589 13.4487 24.8117C12.3673 25.2646 11.1866 25.4906 9.90788 25.4906C8.58207 25.4906 7.4075 25.235 6.3844 24.7245C5.3606 24.2145 4.55851 23.5885 3.97719 22.8446V32H0V17.1012H0.000700182ZM9.3502 21.9746C10.1404 21.9746 10.8675 21.83 11.5305 21.5394C12.1931 21.2495 12.7629 20.8493 13.2398 20.3386C13.7163 19.8282 14.0827 19.2243 14.3386 18.5283C14.5942 17.8322 14.7227 17.0783 14.7227 16.2653C14.7227 15.4768 14.5944 14.7396 14.3386 14.0551C14.0827 13.3706 13.7163 12.7788 13.2398 12.2796C12.7629 11.781 12.1931 11.3862 11.5305 11.0959C10.8675 10.8062 10.1404 10.6611 9.3502 10.6611C8.55935 10.6611 7.83265 10.8001 7.16986 11.0788C6.50684 11.3573 5.93676 11.7399 5.46056 12.2275C4.98343 12.715 4.61119 13.3014 4.34406 13.9854C4.07623 14.6702 3.94278 15.4301 3.94278 16.2655C3.94278 17.0785 4.07623 17.8322 4.34406 18.5286C4.61119 19.2245 4.97757 19.8284 5.443 20.3389C5.90773 20.8495 6.47219 21.2495 7.13474 21.5396C7.798 21.83 8.53594 21.9746 9.3502 21.9746Z" fill="white"/>
<path d="M22.2231 13.7941C22.2231 11.6596 22.8801 10.0058 24.1942 8.83353C25.508 7.66194 27.3278 7.07581 29.6538 7.07581C31.1192 7.07581 32.3106 7.27905 33.2297 7.68484C34.1482 8.0911 34.6078 8.71182 34.6078 9.54746C34.6078 9.94227 34.4972 10.3252 34.2765 10.6959C34.055 11.0676 33.8752 11.2996 33.7354 11.3923C33.3398 11.2068 32.8516 11.0326 32.2703 10.87C31.6888 10.7081 31.026 10.6263 30.2817 10.6263C27.5608 10.6263 26.2001 12.0658 26.2001 14.9431V25.0383H22.2229V13.7941H22.2231Z" fill="white"/>
<path d="M66.5619 17.1012C66.5619 15.4771 66.7944 14.0439 67.2598 12.8022C67.7247 11.561 68.3761 10.5165 69.2135 9.66893C70.0507 8.82208 71.0626 8.17823 72.2484 7.73693C73.4344 7.29609 74.7478 7.07556 76.1904 7.07556C77.5163 7.07556 78.7369 7.30777 79.8535 7.77173C80.9697 8.23639 81.9404 8.87439 82.7661 9.68644C83.5916 10.4992 84.2369 11.4736 84.7025 12.6106C85.1672 13.7479 85.4 14.9778 85.4 16.3006C85.4 17.6467 85.1733 18.8825 84.7196 20.0078C84.2664 21.1336 83.6382 22.1024 82.8361 22.9147C82.0336 23.7272 81.092 24.3589 80.0103 24.8117C78.9289 25.2646 77.7478 25.4906 76.4693 25.4906C75.1439 25.4906 73.9691 25.235 72.9463 24.7245C71.9222 24.2145 71.1199 23.5885 70.5389 22.8446V32H66.5616V17.1012H66.5619ZM75.9116 21.9746C76.7018 21.9746 77.4287 21.83 78.092 21.5394C78.7547 21.2495 79.3244 20.8493 79.8015 20.3386C80.2779 19.8282 80.6438 19.2243 80.9 18.5283C81.1559 17.8322 81.2842 17.0783 81.2842 16.2653C81.2842 15.4768 81.1559 14.7396 80.9 14.0551C80.6438 13.3706 80.2779 12.7788 79.8015 12.2796C79.3244 11.781 78.7547 11.3862 78.092 11.0959C77.4289 10.8062 76.7018 10.6611 75.9116 10.6611C75.1205 10.6611 74.3941 10.8001 73.7313 11.0788C73.068 11.3573 72.4979 11.7399 72.0215 12.2275C71.5446 12.715 71.1724 13.3014 70.9052 13.9854C70.6374 14.6702 70.5042 15.4301 70.5042 16.2655C70.5042 17.0785 70.6376 17.8322 70.9052 18.5286C71.1724 19.2245 71.5385 19.8284 72.0042 20.3389C72.4691 20.8495 73.0334 21.2495 73.6962 21.5396C74.3592 21.83 75.0971 21.9746 75.9116 21.9746Z" fill="white"/>
<path d="M104.378 23.7504C104.192 23.8667 103.902 24.0286 103.506 24.2374C103.111 24.4465 102.616 24.6439 102.024 24.8294C101.431 25.0152 100.744 25.1775 99.9653 25.3168C99.1862 25.4558 98.3309 25.5256 97.4013 25.5256C96.0986 25.5256 94.8838 25.328 93.7553 24.9341C92.6274 24.5397 91.6389 23.9538 90.7905 23.1761C89.9409 22.3987 89.2727 21.4476 88.7841 20.3214C88.2959 19.1963 88.0518 17.902 88.0518 16.4401C88.0518 15.0475 88.2899 13.7768 88.7672 12.6282C89.2434 11.4795 89.906 10.4931 90.7554 9.66895C91.604 8.84569 92.6042 8.20698 93.7553 7.75447C94.907 7.30172 96.1682 7.07581 97.5406 7.07581C98.7498 7.07581 99.8199 7.23233 100.75 7.5456C101.68 7.85888 102.465 8.27659 103.105 8.79872C103.744 9.32085 104.227 9.93036 104.553 10.6263C104.879 11.3227 105.042 12.0658 105.042 12.8543C105.042 13.667 104.89 14.4034 104.588 15.0648C104.285 15.7264 103.751 16.2952 102.983 16.7704C102.216 17.2467 101.18 17.618 99.8782 17.8847C98.5751 18.1518 96.9244 18.2849 94.9243 18.2849C94.4586 18.2849 94.0229 18.2793 93.6163 18.2676C93.2091 18.2562 92.7725 18.2387 92.3078 18.2155C92.4937 19.399 93.0696 20.3564 94.0349 21.0871C94.9997 21.8186 96.3775 22.1837 98.1687 22.1837C98.7737 22.1837 99.3318 22.1379 99.8434 22.0447C100.355 21.9522 100.814 21.8354 101.221 21.6962C101.628 21.5574 101.977 21.4182 102.268 21.2789C102.559 21.1392 102.774 21.0353 102.914 20.9654L104.378 23.7504ZM92.1338 15.5C92.6683 15.5233 93.1804 15.5346 93.669 15.5346C94.1571 15.5346 94.6455 15.5346 95.1341 15.5346C96.4128 15.5346 97.4476 15.4537 98.2387 15.2911C99.0291 15.129 99.6458 14.9202 100.088 14.6646C100.529 14.4095 100.82 14.1196 100.96 13.7941C101.099 13.4694 101.169 13.1328 101.169 12.7847C101.169 11.903 100.814 11.2416 100.106 10.8003C99.3955 10.3597 98.5178 10.139 97.4713 10.139C96.6109 10.139 95.8542 10.2901 95.2034 10.5915C94.5525 10.8933 94.0054 11.2935 93.5641 11.7928C93.1216 12.292 92.7788 12.8662 92.5349 13.5157C92.2905 14.1656 92.1563 14.8269 92.1338 15.5Z" fill="white"/>
<path d="M108.006 13.7941C108.006 11.6596 108.664 10.0058 109.977 8.83353C111.291 7.66194 113.112 7.07581 115.437 7.07581C116.902 7.07581 118.094 7.27905 119.013 7.68484C119.931 8.0911 120.391 8.71182 120.391 9.54746C120.391 9.94227 120.28 10.3252 120.059 10.6959C119.838 11.0676 119.658 11.2996 119.519 11.3923C119.123 11.2068 118.635 11.0326 118.054 10.87C117.472 10.7081 116.809 10.6263 116.065 10.6263C113.344 10.6263 111.983 12.0658 111.983 14.9431V25.0383H108.006V13.7941H108.006Z" fill="white"/>
<path d="M122.624 20.6867C122.786 20.8031 123.077 20.954 123.496 21.139C123.914 21.3252 124.432 21.5165 125.048 21.7137C125.664 21.9109 126.368 22.0791 127.159 22.2186C127.949 22.358 128.81 22.4274 129.74 22.4274C130.949 22.4274 131.938 22.2706 132.706 21.9576C133.473 21.6441 133.857 21.1047 133.857 20.3386C133.857 19.6892 133.613 19.1958 133.124 18.8592C132.636 18.523 131.763 18.2849 130.508 18.1457L127.787 17.8324C126.856 17.7399 126.002 17.5715 125.223 17.3276C124.443 17.0839 123.775 16.7531 123.217 16.3354C122.658 15.9179 122.223 15.4014 121.908 14.7865C121.594 14.1717 121.438 13.4348 121.438 12.5758C121.438 11.8334 121.582 11.1311 121.873 10.47C122.164 9.80841 122.624 9.22274 123.252 8.71206C123.88 8.20161 124.699 7.80166 125.711 7.51104C126.723 7.22113 127.949 7.07605 129.391 7.07605C131.81 7.07605 133.688 7.34331 135.026 7.87665C136.363 8.4107 137.031 9.10687 137.031 9.96518C137.031 10.2439 136.979 10.4875 136.874 10.6962C136.77 10.905 136.653 11.0912 136.526 11.2533C136.398 11.4159 136.264 11.5493 136.124 11.6535C135.984 11.7582 135.88 11.8222 135.81 11.8451C135.717 11.7526 135.514 11.6073 135.2 11.4098C134.886 11.2131 134.461 11.0157 133.927 10.8181C133.392 10.6214 132.752 10.4471 132.008 10.296C131.263 10.1455 130.404 10.0698 129.427 10.0698C126.729 10.0698 125.38 10.7779 125.38 12.1934C125.38 12.7973 125.636 13.2549 126.147 13.5682C126.659 13.8815 127.391 14.0964 128.345 14.2123L131.903 14.6651C133.834 14.9206 135.334 15.4481 136.404 16.2487C137.473 17.0496 138.009 18.2275 138.009 19.7819C138.009 21.5226 137.316 22.9154 135.933 23.9592C134.549 25.0039 132.554 25.5261 129.95 25.5261C128.694 25.5261 127.554 25.4331 126.531 25.2476C125.507 25.0617 124.618 24.8472 123.862 24.6035C123.106 24.3596 122.495 24.1223 122.031 23.8898C121.565 23.6581 121.263 23.4845 121.124 23.3677L122.624 20.6867Z" fill="white"/>
<path d="M150.218 7.07556C151.567 7.07556 152.828 7.30777 154.003 7.77173C155.177 8.23639 156.195 8.88024 157.056 9.70374C157.916 10.5277 158.591 11.5026 159.079 12.6279C159.568 13.7537 159.812 14.9778 159.812 16.3006C159.812 17.6004 159.568 18.8126 159.079 19.9384C158.591 21.064 157.916 22.0391 157.056 22.8626C156.195 23.6866 155.177 24.3365 154.003 24.8119C152.828 25.2875 151.567 25.5256 150.218 25.5256C148.869 25.5256 147.607 25.2875 146.433 24.8119C145.258 24.3365 144.24 23.6868 143.38 22.8626C142.52 22.0393 141.845 21.0642 141.357 19.9384C140.869 18.8126 140.624 17.6004 140.624 16.3006C140.624 14.9778 140.869 13.7537 141.357 12.6279C141.845 11.5026 142.52 10.5277 143.38 9.70374C144.24 8.88024 145.258 8.23639 146.433 7.77173C147.607 7.30777 148.869 7.07556 150.218 7.07556ZM150.218 22.0094C151.009 22.0094 151.741 21.8651 152.416 21.5744C153.09 21.2843 153.666 20.8783 154.143 20.3561C154.619 19.834 154.992 19.2308 155.259 18.5459C155.526 17.8616 155.66 17.1133 155.66 16.3006C155.66 15.4885 155.526 14.7286 155.259 14.0205C154.992 13.3129 154.62 12.7036 154.143 12.1927C153.666 11.6825 153.09 11.282 152.416 10.9914C151.741 10.7017 151.009 10.5567 150.218 10.5567C149.404 10.5567 148.665 10.7017 148.003 10.9914C147.34 11.282 146.77 11.6825 146.293 12.1927C145.816 12.7036 145.444 13.3126 145.177 14.0205C144.909 14.7283 144.776 15.4885 144.776 16.3006C144.776 17.1133 144.909 17.8616 145.177 18.5459C145.444 19.2306 145.816 19.8338 146.293 20.3561C146.77 20.878 147.34 21.2843 148.003 21.5744C148.665 21.8648 149.404 22.0094 150.218 22.0094Z" fill="white"/>
<path d="M163.16 14.4901C163.16 13.3301 163.375 12.2917 163.806 11.3748C164.236 10.4583 164.829 9.68108 165.585 9.04237C166.341 8.40437 167.237 7.91705 168.272 7.58041C169.306 7.24423 170.44 7.07556 171.673 7.07556C172.905 7.07556 174.045 7.24423 175.091 7.58041C176.138 7.91705 177.039 8.40437 177.796 9.04237C178.551 9.68085 179.139 10.4583 179.557 11.3748C179.976 12.292 180.185 13.3304 180.185 14.4901V25.038H176.208V15.4997C176.208 13.9219 175.824 12.7206 175.057 11.8967C174.289 11.0732 173.161 10.6611 171.673 10.6611C170.161 10.6611 169.027 11.0732 168.272 11.8967C167.516 12.7206 167.138 13.9219 167.138 15.4997V25.038H163.161V14.4901H163.16Z" fill="white"/>
<path d="M200 24.9689C199.767 25.0152 199.4 25.0672 198.901 25.1252C198.4 25.1829 197.814 25.2408 197.139 25.299C196.465 25.3569 195.709 25.4093 194.872 25.4558C194.034 25.5023 193.162 25.5256 192.255 25.5256C190.441 25.5256 188.959 25.3691 187.807 25.0553C186.656 24.7423 185.749 24.3244 185.086 23.8022C184.423 23.2803 183.97 22.6771 183.726 21.9926C183.481 21.3079 183.36 20.6054 183.36 19.8861C183.36 18.9346 183.505 18.0992 183.796 17.3797C184.086 16.6606 184.563 16.0569 185.226 15.5696C185.889 15.0823 186.755 14.7167 187.825 14.473C188.895 14.2296 190.197 14.1076 191.732 14.1076C192.616 14.1076 193.453 14.1371 194.244 14.1948C195.034 14.253 195.627 14.3053 196.023 14.3513C196.023 13.5393 195.888 12.8664 195.621 12.3322C195.354 11.7983 194.988 11.3811 194.523 11.079C194.058 10.7774 193.499 10.5686 192.848 10.4525C192.197 10.3366 191.476 10.2782 190.685 10.2782C189.36 10.2782 188.296 10.4294 187.494 10.731C186.691 11.0328 186.162 11.2879 185.906 11.4968C185.767 11.3809 185.575 11.1606 185.33 10.8354C185.087 10.5107 184.964 10.1163 184.964 9.65142C184.964 9.3267 185.052 9.00781 185.226 8.69453C185.4 8.38102 185.708 8.10254 186.15 7.85888C186.592 7.61546 187.184 7.42366 187.929 7.28443C188.673 7.14542 189.615 7.07581 190.756 7.07581C192.127 7.07581 193.377 7.20966 194.506 7.47622C195.633 7.74324 196.604 8.16703 197.418 8.74663C198.232 9.32694 198.866 10.0927 199.32 11.0442C199.773 11.996 200 13.1447 200 14.4903V24.9689ZM196.058 17.2404C195.825 17.1942 195.389 17.1246 194.75 17.0316C194.11 16.9388 193.15 16.8921 191.871 16.8921C190.29 16.8921 189.138 17.1306 188.418 17.6056C187.696 18.0817 187.336 18.8299 187.336 19.8506C187.336 20.2685 187.411 20.6519 187.563 21C187.714 21.3476 187.976 21.6439 188.348 21.8875C188.72 22.1309 189.226 22.3171 189.865 22.4442C190.505 22.5727 191.301 22.6358 192.255 22.6358C193.324 22.6358 194.174 22.5956 194.802 22.5141C195.43 22.433 195.849 22.3692 196.058 22.3225V17.2404Z" fill="white"/>
<path d="M45.918 26.6009C45.814 26.6009 45.7082 26.5909 45.6031 26.571C45.5151 26.5539 36.4769 24.7271 36.4769 14.6029V10.6576C36.4769 9.97073 36.8923 9.3666 37.5347 9.1178L45.3207 6.11047C45.704 5.96306 46.1322 5.96329 46.5143 6.11047L54.3013 9.1178C54.9437 9.36614 55.3597 9.97073 55.3597 10.6576V14.6029C55.3597 24.611 46.3321 26.5525 46.2413 26.5703C46.1163 26.5923 46.0173 26.6009 45.918 26.6009ZM39.7871 11.7897V14.6029C39.7871 21.0799 44.5032 22.8633 45.9138 23.2509C47.3262 22.8565 52.0488 21.0511 52.0488 14.6029V11.7897L45.918 9.42197L39.7871 11.7897Z" fill="#3DBEEE"/>
</svg>
